<?xml version="1.0" encoding="UTF-8" standalone="no"?>
<!-- Created with Inkscape (http://www.inkscape.org/) -->

<svg
   xmlns:dc="http://purl.org/dc/elements/1.1/"
   xmlns:cc="http://creativecommons.org/ns#"
   xmlns:rdf="http://www.w3.org/1999/02/22-rdf-syntax-ns#"
   xmlns:svg="http://www.w3.org/2000/svg"
   xmlns="http://www.w3.org/2000/svg"
   xmlns:sodipodi="http://sodipodi.sourceforge.net/DTD/sodipodi-0.dtd"
   xmlns:inkscape="http://www.inkscape.org/namespaces/inkscape"
   width="286.64285"
   height="175.92857"
   id="svg2"
   version="1.1"
   inkscape:version="0.48.4 r9939"
   sodipodi:docname="cvpr2015-logo.svg"
   inkscape:export-filename="/home/amilan/research/papers/2015/anton-cvpr/cameraready/figures/cvpr-logo.png"
   inkscape:export-xdpi="99.751335"
   inkscape:export-ydpi="99.751335">
  <defs
     id="defs4" />
  <sodipodi:namedview
     id="base"
     pagecolor="#ffffff"
     bordercolor="#666666"
     borderopacity="1.0"
     inkscape:pageopacity="0.0"
     inkscape:pageshadow="2"
     inkscape:zoom="1.979899"
     inkscape:cx="29.118567"
     inkscape:cy="97.782545"
     inkscape:document-units="px"
     inkscape:current-layer="layer1"
     showgrid="false"
     inkscape:window-width="1920"
     inkscape:window-height="1056"
     inkscape:window-x="0"
     inkscape:window-y="24"
     inkscape:window-maximized="1"
     fit-margin-top="0"
     fit-margin-left="0"
     fit-margin-right="0"
     fit-margin-bottom="0" />
  <metadata
     id="metadata7">
    <rdf:RDF>
      <cc:Work
         rdf:about="">
        <dc:format>image/svg+xml</dc:format>
        <dc:type
           rdf:resource="http://purl.org/dc/dcmitype/StillImage" />
        <dc:title />
      </cc:Work>
    </rdf:RDF>
  </metadata>
  <g
     inkscape:label="Layer 1"
     inkscape:groupmode="layer"
     id="layer1"
     transform="translate(-11.142858,-277.79074)">
    <g
       style="font-size:40px;font-style:normal;font-weight:normal;line-height:125%;letter-spacing:0px;word-spacing:0px;fill:#000000;fill-opacity:1;stroke:none;font-family:Sans"
       id="text3766" />
    <g
       style="font-size:40px;font-style:normal;font-weight:normal;line-height:125%;letter-spacing:0px;word-spacing:0px;fill:#000000;fill-opacity:1;stroke:none;font-family:Sans"
       id="text3815"
       transform="translate(-2.2728385,0)" />
    <g
       style="font-size:38.34942244999999872px;font-style:normal;font-variant:normal;font-stretch:normal;line-height:125%;letter-spacing:0px;word-spacing:0px;fill:#000000;fill-opacity:1;fill-rule:evenodd;stroke:none;font-family:URW Gothic L;-inkscape-font-specification:URW Gothic L Book"
       id="text3819">
      <path
         id="path3871"
         style="font-size:19.17471122999999977px;fill:#000000;fill-opacity:1;fill-rule:evenodd;font-family:URW Gothic L;-inkscape-font-specification:URW Gothic L Book"
         d="m 194.31296,345.875 1.09295,0.42185 c 0.86287,-1.07378 1.8216,-1.5915 2.93373,-1.5915 1.91747,0 3.39393,1.57233 3.39393,3.64319 0,2.07087 -1.49563,3.68155 -3.39393,3.68155 -1.78324,0 -3.183,-1.39976 -3.43227,-3.4131 l -1.38058,0 c 0.13423,0.93956 0.2301,1.32305 0.47937,1.87912 0.82451,1.7449 2.49271,2.81868 4.39101,2.81868 2.66528,0 4.75533,-2.18592 4.75533,-4.96625 0,-2.76115 -2.0517,-4.9279 -4.69781,-4.9279 -0.84368,0 -1.57232,0.19175 -2.43519,0.67112 l 0.69029,-3.91164 5.25388,0 0,-1.28471 -6.38518,0 -1.26553,6.97959 m -6.53259,7.19052 1.39975,0 0,-14.17011 -3.81576,0 0,1.28471 2.41601,0 0,12.8854 m -15.44882,-5.158 c 0,1.41893 0.23009,2.49272 0.69028,3.27888 0.82452,1.39975 2.26262,2.12839 4.16092,2.12839 1.70654,0 2.99125,-0.59441 3.79659,-1.76407 0.55607,-0.82451 0.84369,-2.0517 0.84369,-3.6432 l 0,-4.02669 c 0,-1.61067 -0.21093,-2.47353 -0.82452,-3.3364 -0.84368,-1.22718 -2.24344,-1.89829 -3.93081,-1.89829 -1.5915,0 -2.89538,0.55607 -3.7199,1.5915 -0.70946,0.88204 -1.01625,1.975 -1.01625,3.64319 l 0,4.02669 m 8.09172,-0.23009 c 0,1.24635 -0.15339,2.22426 -0.46019,2.81868 -0.49854,0.97791 -1.53398,1.53398 -2.83786,1.53398 -1.208,0 -2.16674,-0.4602 -2.76116,-1.34223 -0.44101,-0.63277 -0.63276,-1.55316 -0.63276,-3.01043 l 0,-3.47063 c 0,-1.32305 0.1534,-2.18591 0.49854,-2.78033 0.55607,-0.93956 1.61068,-1.49563 2.85703,-1.49563 1.11214,0 2.09005,0.4602 2.68446,1.26553 0.47937,0.65194 0.65194,1.45728 0.65194,3.01043 l 0,3.47063 m -18.67017,5.38809 8.99294,0 0,-1.2847 -7.07547,0 4.5444,-4.35266 c 1.99417,-1.8983 2.60776,-2.95291 2.60776,-4.46771 0,-2.49271 -1.87912,-4.31431 -4.4677,-4.31431 -1.975,0 -3.54733,1.03543 -4.18009,2.76116 -0.24927,0.67111 -0.3068,1.07378 -0.3068,2.07087 l 1.39976,0 c 0,-0.88204 0.11505,-1.43811 0.36432,-1.95582 0.49854,-0.99709 1.49563,-1.59151 2.70363,-1.59151 1.78325,0 3.06796,1.24636 3.06796,2.95291 0,0.84369 -0.3068,1.57233 -0.99709,2.37766 -0.42184,0.51772 -0.42184,0.51772 -1.68737,1.72573 l -4.96625,4.79368 0,1.2847 m -125.766416,-4.90593 0,-13.76333 5.682109,0 0,13.76333 z m 154.102606,-47.04741 0,0.98214 1.69642,0 0,3.92857 1.07143,0 0,27.23695 c 0,0 0.77609,0.26396 1.06094,0.54029 0.45549,0.44185 0.91509,1.66942 0.91509,1.66942 l 0,-9.15451 3.03046,-10.35406 2.02031,0 0,-1.89404 2.0203,0 0,-6.97262 0.9529,0 0,-3.125 4.82143,0 0,2.85715 1.42857,0 0,28.21428 1.69643,0 c 0,0 -0.26786,-1.07143 0.35714,-1.07143 0.625,0 1.69643,0 1.69643,0 l 0,-27.85714 2.00893,-2.00893 0,-0.9375 3.88393,0 0,1.78572 2.05357,0 0,30.80357 1.21091,0.32446 0,-6.93161 0.75338,0 0,-5.17857 1.07143,0 0,-1.16071 0.96099,0.2575 0,1.6175 1.09258,0 0,7.14286 1.07143,0 0,4.28571 2.76785,0 -0.012,-1.0443 0.99411,0 0,-4.66999 1.16071,0 0,-4.28571 1.07143,0 0,-2.14286 0.80357,0 0,6.33929 1.07143,0 0,4.64286 2.94643,2.85714 0,2.23214 1.07143,0.98215 2.05357,0 0,-7.14286 -0.80357,0 0,-2.76786 0.71428,0 0,-2.67857 0.98214,0 0,-2.05357 1.96429,0 0,2.23214 1.16071,0 0,12.58929 3.03572,0 5.22321,-5.22322 2.76786,2.76786 0,2.63393 1.11607,0 0,-1.78572 3.83929,0 0,4.46429 6.96428,0 0,-4.10714 1.96429,0 0,4.10714 8.92857,0 0,1.07143 -8.57143,1.69643 10e-6,1.60714 8.48214,0 0,8.30357 -255.427171,0.13497 0,-8.83883 10.606601,0 0,-20.70813 4.04061,0 1.136422,-3.03046 0.441942,0 0.947018,3.03046 3.282996,0 0,8.5863 3.535534,0 0,-11.11168 2.020305,-1.76777 2.020305,2.02031 0,10.85914 1.539997,-0.41264 0,-10.95158 1.995537,0 0,-1.20295 1.092081,0 0,1.07143 1.875,0 0,19.64286 3.214286,0 0,-2.05357 1.696429,0 0,5.89286 3.214285,0 0,-16.78572 L 70,328.79075 l 0,-2.76786 0.803572,0 0,3.125 3.125,1.60715 0,0.89286 0.982142,0 0,-12.67858 1.607143,0 0,1.07143 1.607143,0 0,-1.07143 1.696429,0 0,22.94643 5.267857,0 c 0,0 0,-1.16071 0.714286,-2.23214 0.714285,-1.07143 2.142857,-2.05357 2.142857,-2.05357 l 1.875,0.89286 0,-7.41072 5,0 0.257498,-0.96099 0.81393,0 0,-5.11044 0.982143,0 0,5.08929 1.071429,0 0,0.98214 3.928571,0 0,-3.48214 2.32143,-2.5 3.48214,4.64285 0,-9.73214 2.23214,0 0,-0.98214 0.961,-0.2575 0,-1.79607 0.82472,0 0,1.69643 1.14992,0.30812 0,1.12045 1.97508,0 0,16.25 2.14286,0 0,-32.32143 1.25,0 0,3.03571 8.03571,0 0,-3.125 1.51786,0 0,28.92858 1.06662,0.2858 0,-19.30366 1.07623,0 0,-3.83929 0.98215,0 0,3.83929 3.83928,0 0,20.08928 1.07143,0 c 0,0 0,-8.4119 0,-9.42205 0,-1.01015 -0.37999,-1.57836 1.19837,-1.6415 1.57836,-0.0631 6.75539,0 6.75539,0 l 0,-2.90418 2.08344,0 0,-2.96733 1.01016,0 0,1.07329 0.94701,0 0,1.89404 2.02031,0 0,15.02601 1.01015,0 0,-15.97303 1.07329,0 0,-4.98763 0.88388,0 0,-0.94702 1.89404,0 0,1.13642 1.19955,0 0,4.79823 0.94702,0 0,2.96732 1.01016,1.13642 0,1.8309 0.94701,0 0,-5.11389 1.07329,-0.88389 0,-3.8512 1.38896,-1.07329 1.51523,1.01015 0,4.98763 1.07329,0 0,-25.11325 2.05874,-1.875 4.82143,0 2.23214,2.14285 1.07143,0 0,19.82143 3.75,0 0,2.94643 4.01785,0 0,-11.875 1.16072,0 0,-3.92857 2.05357,0 0,-1.07143 2.05357,-2.14286 0.98214,0 z m -48.65398,51.96427 0,-14.31641 6.08398,0 c 1.52994,10e-6 2.63996,0.13022 3.33008,0.39063 0.6966,0.25392 1.25324,0.70964 1.66992,1.36718 0.41665,0.65757 0.62499,1.40952 0.625,2.25586 -1e-5,1.07423 -0.31577,1.9629 -0.94727,2.66602 -0.63152,0.69662 -1.57553,1.13607 -2.83203,1.31836 0.62499,0.36459 1.13932,0.76498 1.54297,1.20117 0.41015,0.4362 0.96028,1.21094 1.65039,2.32422 l 1.74805,2.79297 -3.45703,0 -2.08985,-3.11524 c -0.74219,-1.11327 -1.25,-1.81314 -1.52343,-2.09961 -0.27345,-0.29296 -0.56316,-0.49153 -0.86914,-0.5957 -0.306,-0.11067 -0.79103,-0.16601 -1.45508,-0.16602 l -0.58594,0 0,5.97657 -2.89062,0 m 2.89062,-8.26172 2.13867,0 c 1.38671,10e-6 2.2526,-0.0586 2.59766,-0.17578 0.34504,-0.11718 0.61522,-0.31901 0.81055,-0.60547 0.1953,-0.28645 0.29295,-0.64452 0.29296,-1.07422 -1e-5,-0.48176 -0.13021,-0.86913 -0.39062,-1.16211 -0.25392,-0.29947 -0.61524,-0.48827 -1.08399,-0.56641 -0.23438,-0.0325 -0.9375,-0.0488 -2.10937,-0.0488 l -2.25586,0 0,3.63281 m -16.25977,8.2617 0,-14.31641 4.63868,0 c 1.7578,10e-6 2.90363,0.0716 3.4375,0.21484 0.8203,0.21486 1.50715,0.68361 2.06054,1.40625 0.55338,0.71616 0.83007,1.6439 0.83008,2.78321 -1e-5,0.87891 -0.15952,1.61784 -0.47851,2.21679 -0.31903,0.59897 -0.72593,1.07097 -1.22071,1.41602 -0.48829,0.33855 -0.98634,0.56316 -1.49414,0.67383 -0.69011,0.13672 -1.68946,0.20508 -2.99804,0.20508 l -1.88477,0 0,5.40039 -2.89063,0 m 2.89063,-11.89453 0,4.0625 1.58203,0 c 1.13932,0 1.90103,-0.0749 2.28516,-0.22461 0.3841,-0.14974 0.68358,-0.38411 0.89843,-0.70313 0.22135,-0.319 0.33203,-0.69009 0.33204,-1.11328 -1e-5,-0.52082 -0.15301,-0.95051 -0.45899,-1.28906 -0.306,-0.33853 -0.69337,-0.55012 -1.16211,-0.63477 -0.34506,-0.0651 -1.03842,-0.0976 -2.08008,-0.0976 l -1.39648,0 m -12.59766,11.89448 -5.11718,-14.31641 3.13476,0 3.62305,10.5957 3.50586,-10.5957 3.0664,0 -5.12695,14.31641 -3.08594,0 m -8.94531,-5.26368 2.80274,0.88868 c -0.42971,1.5625 -1.14585,2.72461 -2.14844,3.48632 -0.99611,0.75521 -2.26238,1.13282 -3.79883,1.13282 -1.90105,0 -3.46355,-0.64779 -4.6875,-1.94336 -1.22396,-1.30208 -1.835938,-3.07942 -1.835938,-5.33203 0,-2.38281 0.615228,-4.23176 1.845708,-5.54688 1.23046,-1.3216 2.8483,-1.98241 4.85351,-1.98242 1.75129,1e-5 3.17382,0.51759 4.26758,1.55273 0.65103,0.612 1.13931,1.4909 1.46484,2.63672 l -2.86133,0.6836 c -0.16928,-0.74218 -0.52409,-1.32812 -1.06445,-1.75782 -0.53386,-0.42967 -1.1849,-0.64452 -1.95312,-0.64453 -1.06121,10e-6 -1.92384,0.38087 -2.58789,1.14258 -0.65756,0.76173 -0.98634,1.99545 -0.98633,3.70117 -10e-6,1.8099 0.32551,3.09897 0.97656,3.86719 0.65104,0.76823 1.49739,1.15235 2.53906,1.15234 0.76822,1e-5 1.42903,-0.24413 1.98242,-0.73242 0.55338,-0.48828 0.95051,-1.2565 1.19141,-2.30469 m 158.32256,1.10443 -6.99075,0 0,-3.6618 7.02774,1.51523 z"
         inkscape:connector-curvature="0"
         sodipodi:nodetypes="ccssscccssscccccccccccccccscsscscscccscsscscsccccccssccccssccccccccccccccccccccccccccccccscccccccccccccccccccccccccccccccccccccccccccccccccccccccccccccccccccccccccccccccccccccccccccccccccccccccccccccscccccccccccccccccccccccccccccccccccccccccccsccccccccccccccccccccccccccccccccccccccccccccccccccccscccccccccccccccccscccccsccccsccccccscccccscccccsccccccccccccscscccccccccccscccccc" />
    </g>
    <g
       transform="scale(0.9980288,1.0019751)"
       style="font-size:39.92115402000000302px;font-style:normal;font-weight:normal;line-height:125%;letter-spacing:0px;word-spacing:0px;fill:#000000;fill-opacity:1;stroke:none;font-family:Sans"
       id="text3823">
      <path
         d="m 23.391694,360.89814 18.276403,0 c 3.617828,4e-5 6.315622,0.15079 8.09339,0.45223 1.777706,0.30153 3.368313,0.9305 4.771825,1.8869 1.403441,0.95648 2.573005,2.23001 3.508695,3.82057 0.935612,1.59065 1.403437,3.37359 1.403478,5.34882 -4.1e-5,2.14163 -0.577025,4.1065 -1.730956,5.8946 -1.154009,1.78816 -2.718625,3.12926 -4.693854,4.02331 2.786126,0.81092 4.927728,2.1936 6.42481,4.14805 1.497001,1.9545 2.245522,4.25204 2.245565,6.89264 -4.3e-5,2.07924 -0.483463,4.10128 -1.450261,6.06614 -0.966881,1.96488 -2.287188,3.53469 -3.960926,4.70945 -1.673814,1.17477 -3.737444,1.8973 -6.190898,2.1676 -1.538658,0.16634 -5.250073,0.2703 -11.134259,0.31188 l -15.563012,0 z m 9.231767,7.60997 0,10.57286 6.05055,0 c 3.597038,3e-5 5.832205,-0.0519 6.705506,-0.15594 1.580184,-0.1871 2.82252,-0.7329 3.727013,-1.63739 0.904433,-0.90443 1.356664,-2.09479 1.356696,-3.57107 -3.2e-5,-1.41384 -0.389886,-2.56261 -1.169565,-3.44632 -0.77974,-0.88363 -1.938908,-1.41903 -3.477507,-1.6062 -0.914886,-0.10393 -3.545105,-0.15591 -7.890665,-0.15594 z m 0,18.18283 0,12.22586 8.545622,0 c 3.326736,0 5.437149,-0.0936 6.331245,-0.2807 1.372259,-0.2495 2.489843,-0.85767 3.352753,-1.82452 0.862846,-0.96683 1.294285,-2.26115 1.294319,-3.88296 -3.4e-5,-1.37227 -0.33271,-2.53664 -0.998029,-3.4931 -0.665385,-0.95642 -1.627026,-1.65296 -2.884927,-2.08962 -1.257961,-0.43662 -3.986943,-0.65494 -8.186955,-0.65496 z"
         style="font-size:63.87384415000000359px;font-weight:bold;letter-spacing:-1.50702344999999993px;fill:#000000;-inkscape-font-specification:Sans Bold;fill-opacity:1"
         id="path2992" />
      <path
         d="m 66.141012,384.03993 c -3e-6,-4.65744 0.696537,-8.56638 2.089622,-11.72684 1.039608,-2.3287 2.458679,-4.41832 4.257217,-6.26887 1.79852,-1.85047 3.768586,-3.22276 5.910202,-4.11687 2.848523,-1.2059 6.133698,-1.80888 9.855534,-1.80892 6.736663,4e-5 12.127053,2.08966 16.171183,6.26886 4.04405,4.17929 6.0661,9.99072 6.06615,17.43432 -5e-5,7.38127 -2.0065,13.15632 -6.01936,17.32516 -4.01295,4.16885 -9.377348,6.25327 -16.093219,6.25327 -6.799089,0 -12.205073,-2.07403 -16.217968,-6.22209 -4.012912,-4.14804 -6.019364,-9.86071 -6.019361,-17.13802 z m 9.512462,-0.31189 c -1.3e-5,5.1773 1.195542,9.10183 3.586666,11.77363 2.391092,2.67181 5.42676,4.00771 9.107013,4.00771 3.680202,0 6.700276,-1.3255 9.06023,-3.97653 2.359886,-2.651 3.539847,-6.62751 3.539887,-11.92956 -4e-5,-5.23962 -1.148813,-9.14856 -3.446322,-11.72684 -2.297577,-2.5782 -5.348839,-3.86732 -9.153795,-3.86736 -3.805006,4e-5 -6.871863,1.30475 -9.200578,3.91415 -2.328748,2.60946 -3.493114,6.54439 -3.493101,11.8048 z"
         style="font-size:63.87384415000000359px;font-weight:bold;letter-spacing:-1.50702344999999993px;fill:#000000;-inkscape-font-specification:Sans Bold;fill-opacity:1"
         id="path2994" />
      <path
         d="m 113.81809,391.74346 8.98226,-0.87327 c 0.54059,3.01489 1.63738,5.22926 3.29038,6.64313 1.65297,1.41388 3.88293,2.12082 6.68991,2.12081 2.97327,10e-6 5.21363,-0.62896 6.7211,-1.8869 1.50741,-1.25792 2.26113,-2.72897 2.26116,-4.41316 -3e-5,-1.08118 -0.31711,-2.00124 -0.95125,-2.76017 -0.63419,-0.7589 -1.74138,-1.41906 -3.32156,-1.98046 -1.08123,-0.37425 -3.54511,-1.0396 -7.39165,-1.99606 -4.94858,-1.22672 -8.42088,-2.73416 -10.41693,-4.52232 -2.80696,-2.51584 -4.21044,-5.58269 -4.21043,-9.20058 -1e-5,-2.3287 0.66015,-4.50668 1.98046,-6.53397 1.3203,-2.0272 3.22279,-3.57103 5.70748,-4.63148 2.48466,-1.06036 5.48394,-1.59056 8.99785,-1.5906 5.73864,4e-5 10.05823,1.25797 12.95878,3.77379 2.90049,2.51591 4.42352,5.87385 4.5691,10.07386 l -9.23177,0.40544 c -0.39508,-2.34949 -1.24236,-4.03886 -2.54185,-5.06811 -1.29954,-1.02918 -3.24881,-1.54379 -5.84783,-1.54383 -2.68222,4e-5 -4.78223,0.55104 -6.30005,1.65299 -0.97725,0.70697 -1.46587,1.65302 -1.46586,2.83814 -10e-6,1.08123 0.45742,2.00649 1.37229,2.77577 1.16435,0.97727 3.9921,1.99609 8.48325,3.05646 4.4911,1.06044 7.81266,2.15723 9.96469,3.29038 2.15197,1.1332 3.83614,2.68223 5.05252,4.64707 1.21631,1.96489 1.82448,4.39238 1.82452,7.28249 -4e-5,2.61984 -0.72776,5.07333 -2.18318,7.36047 -1.4555,2.28715 -3.51393,3.98692 -6.17531,5.0993 -2.66144,1.11239 -5.9778,1.66858 -9.9491,1.66858 -5.78026,0 -10.21941,-1.3359 -13.31744,-4.00771 -3.09806,-2.6718 -4.94857,-6.56515 -5.55154,-11.68006 z"
         style="font-size:63.87384415000000359px;font-weight:bold;letter-spacing:-1.50702344999999993px;fill:#000000;-inkscape-font-specification:Sans Bold;fill-opacity:1"
         id="path2996" />
      <path
         d="m 167.60811,406.62033 0,-37.98747 -13.56696,0 0,-7.73472 36.33449,0 0,7.73472 -13.53577,0 0,37.98747 z"
         style="font-size:63.87384415000000359px;font-weight:bold;letter-spacing:-1.50702344999999993px;fill:#000000;-inkscape-font-specification:Sans Bold;fill-opacity:1"
         id="path2998" />
      <path
         d="m 192.98548,384.03993 c 0,-4.65744 0.69654,-8.56638 2.08962,-11.72684 1.03961,-2.3287 2.45868,-4.41832 4.25722,-6.26887 1.79852,-1.85047 3.76858,-3.22276 5.9102,-4.11687 2.84852,-1.2059 6.1337,-1.80888 9.85553,-1.80892 6.73667,4e-5 12.12706,2.08966 16.17119,6.26886 4.04405,4.17929 6.0661,9.99072 6.06614,17.43432 -4e-5,7.38127 -2.00649,13.15632 -6.01936,17.32516 -4.01294,4.16885 -9.37734,6.25327 -16.09321,6.25327 -6.79909,0 -12.20508,-2.07403 -16.21797,-6.22209 -4.01291,-4.14804 -6.01936,-9.86071 -6.01936,-17.13802 z m 9.51246,-0.31189 c -1e-5,5.1773 1.19554,9.10183 3.58667,11.77363 2.39109,2.67181 5.42676,4.00771 9.10701,4.00771 3.6802,0 6.70028,-1.3255 9.06023,-3.97653 2.35989,-2.651 3.53985,-6.62751 3.53988,-11.92956 -3e-5,-5.23962 -1.14881,-9.14856 -3.44631,-11.72684 -2.29758,-2.5782 -5.34884,-3.86732 -9.1538,-3.86736 -3.80501,4e-5 -6.87186,1.30475 -9.20058,3.91415 -2.32875,2.60946 -3.49311,6.54439 -3.4931,11.8048 z"
         style="font-size:63.87384415000000359px;font-weight:bold;letter-spacing:-1.50702344999999993px;fill:#000000;-inkscape-font-specification:Sans Bold;fill-opacity:1"
         id="path3000" />
      <path
         d="m 243.09526,406.62033 0,-45.72219 8.98226,0 18.71304,30.53344 0,-30.53344 8.57681,0 0,45.72219 -9.26295,0 -18.43235,-29.81611 0,29.81611 z"
         style="font-size:63.87384415000000359px;font-weight:bold;letter-spacing:-1.50702344999999993px;fill:#000000;-inkscape-font-specification:Sans Bold;fill-opacity:1"
         id="path3002" />
    </g>
    <g
       transform="scale(1.1142258,0.89748414)"
       style="font-size:35.89936447px;font-style:normal;font-variant:normal;font-weight:600;font-stretch:normal;line-height:125%;letter-spacing:0px;word-spacing:0px;fill:#000000;fill-opacity:1;stroke:none;font-family:URW Gothic L;-inkscape-font-specification:URW Gothic L Semi-Bold"
       id="text3827" />
    <path
       id="rect3831"
       style="fill:#000000;fill-opacity:1;fill-rule:evenodd;stroke:none"
       d="m 22.5,413.07648 256.78571,0 0,12.85714 -256.78571,0 z m 246.95347,10.17827 5.736,0 0,-1.20821 -3.49199,0 1.812,-1.32421 c 0.648,-0.47362 0.924,-0.71526 1.18799,-1.04389 0.34801,-0.40597 0.528,-0.88925 0.528,-1.37254 0,-1.31454 -1.248,-2.31977 -2.89199,-2.31977 -1.032,0 -1.968,0.39629 -2.472,1.05356 -0.33601,0.42529 -0.468,0.85058 -0.468,1.53685 l 1.57199,0 c 0,-0.85059 0.552,-1.4112 1.38001,-1.4112 0.732,0 1.284,0.4833 1.284,1.12123 0,0.46395 -0.30001,0.87959 -1.02001,1.43052 l -3.156,2.40678 0,1.13088 m -4.24255,0 1.596,0 0,-7.14297 -2.71201,0 0,1.20822 1.11601,0 0,5.93475 m -7.10307,-2.21344 3.32401,0 0,-1.14056 -3.32401,0 0,1.14056 m -6.65456,2.21344 1.80001,0 3.23999,-5.93475 0,-1.20822 -5.22,0 0,1.20822 3.54,0 -3.36,5.93475 m -9.72994,0 4.764,0 0,-1.2662 -3.12,0 0,-1.66251 2.98801,0 0,-1.26621 -2.98801,0 0,-1.68184 3.12,0 0,-1.26621 -4.764,0 0,7.14297 m -8.8828,0 1.64399,0 0,-5.19049 3.708,5.19049 1.836,0 0,-7.14297 -1.644,0 0,5.20016 -3.67199,-5.20016 -1.872,0 0,7.14297 m -7.68751,-7.14297 0,4.52357 c 0,0.76359 0.14401,1.24687 0.48,1.68183 0.516,0.65727 1.47601,1.06323 2.508,1.06323 0.96,0 1.872,-0.34796 2.4,-0.91824 0.432,-0.46396 0.6,-0.99557 0.6,-1.82682 l 0,-4.52357 -1.644,0 0,4.52357 c 0,0.53161 -0.048,0.75392 -0.216,0.9859 -0.22799,0.29963 -0.66,0.48329 -1.128,0.48329 -0.48,0 -0.912,-0.18366 -1.14,-0.48329 -0.168,-0.23198 -0.216,-0.45429 -0.216,-0.9859 l 0,-4.52357 -1.644,0 m -3.25762,0 0,5.05518 c 0,0.62827 -0.26401,0.93758 -0.79201,0.93758 -0.40799,0 -0.672,-0.18366 -0.77999,-0.54128 l -1.644,0 c 0.072,0.56061 0.204,0.85058 0.56399,1.16955 0.456,0.40596 1.152,0.6476 1.896,0.6476 1.48801,0 2.4,-0.83125 2.4,-2.17478 l 0,-5.09385 -1.64399,0"
       inkscape:connector-curvature="0"
       sodipodi:nodetypes="cccccccccccsscccssccccccccccccccccccccccccccccccccccccccccccccccccscscsccscscscccsscccsscc" />
  </g>
</svg>
